<svg version="1.2" xmlns="http://www.w3.org/2000/svg" viewBox="0 0 649 292" width="649" height="292"><defs><clipPath clipPathUnits="userSpaceOnUse" id="cp1"><path d="m1.9 8.3h630v258.8h-630z"/></clipPath><clipPath clipPathUnits="userSpaceOnUse" id="cp2"><path d="m1.9 8.3h630v258.8h-630z"/></clipPath><clipPath clipPathUnits="userSpaceOnUse" id="cp3"><path d="m1.9 8.3h630v258.8h-630z"/></clipPath></defs><style>.a{fill:transparent}.b{fill:#ffffff}.c{fill:none;stroke:#ffffff;stroke-miterlimit:10;stroke-width:4.3}.d{fill:none;stroke:#ffffff;stroke-miterlimit:10;stroke-width:9.9}.e{fill:none;stroke:#ffffff;stroke-miterlimit:10;stroke-width:2.8}.f{fill:#231f20}</style><path fill-rule="evenodd" class="a" d="m-114.4-112.5h844.4v596.6h-844.4z"/><g clip-path="url(#cp1)"><path class="b" d="m17.9 198v-151.3h87.7v29.5h-55.2v28.1h52v29.5h-52v64.2z"/><path class="b" d="m332.1 145.6h-14.1q-8.5 0-12.8 4-4.2 4.1-4.2 11.9 0 7.2 3.4 11.3 3.5 4.1 9.6 4.1 7.6 0 12.9-7.7 5.2-7.7 5.2-19.3zm27.3-14.3v67.7h-27.3v-17.5q-5.5 10.8-12.3 15.7-6.8 4.9-16.5 4.9-13.2 0-21.5-10.7-8.1-10.8-8.1-28 0-20.8 10.2-30.6 10.3-9.7 32.2-9.7h16v-3q0-9-5.1-13.1-5.1-4.3-15.8-4.3-8.7 0-16.2 2.5-7.5 2.4-13.9 7.3v-28.9q8.7-3 17.5-4.5 8.7-1.6 17.5-1.6 23 0 33.1 12.7 10.2 12.6 10.2 41.1zm82.3-33.6v-63.5h27.2v164.8h-27.2v-17.1q-5.6 10.5-12.3 15.3-6.8 4.9-15.6 4.9-15.7 0-25.8-17.4-10-17.4-10-44.9 0-27.4 10-44.8 10.1-17.5 25.8-17.5 8.7 0 15.5 5 6.8 4.9 12.4 15.2zm-17.9 76.9q8.7 0 13.3-8.9 4.6-8.9 4.6-25.9 0-16.9-4.6-25.8-4.6-8.9-13.3-8.9-8.6 0-13.2 8.9-4.6 8.9-4.6 25.8 0 17 4.6 25.9 4.6 8.9 13.2 8.9z"/></g><path class="b" d="m127.7 199v-91.2h24.3v91.2zm0-102.9v-23.8h24.3v23.8z"/><g clip-path="url(#cp2)"><path class="c" d="m247.7 200.7c-9.3 2.9-15.3 10.3-13.4 16.6 1.9 6.3 11.1 9.1 20.4 6.3 9.3-2.9 15.3-10.3 13.4-16.6-1.9-6.3-11.1-9.1-20.4-6.3z"/><path class="b" d="m219.6 18.6c0 0 0-0.1 0-0.2-2.3-3-6.1-5.9-9.8-8-0.2-0.1-0.4-0.2-0.5-0.4l-4.6-1.8c-0.8-0.3-2 0.4-1.8 1.1l4 15c0.2 1.7-2.7 3.3-5.1 4.5-1.8 0.9-3.7 1.6-5.6 2.2l-1.7 0.5c-1.9 0.6-3.9 1-5.9 1.3-2.6 0.4-5.9 0.7-6.7-0.8l-5.1-14.6c-0.2-0.7-1.6-0.6-2.1 0.1l-2.8 4c0 0.2-0.1 0.4-0.2 0.6-1.9 3.8-3.4 8.3-3.6 12.1 0 0 0 0 0 0.1 0.4 9.1 6.8 15.5 21.5 14.2l47.6 155.3 20.4-6.2-47.6-155.3c12.7-7.2 14.3-15.9 9.6-23.7z"/><path class="c" d="m270.1 43.1c8.7 4.4 18.2 3.2 21.2-2.7 3-5.9-1.6-14.3-10.4-18.7-8.7-4.4-18.2-3.2-21.2 2.7-3 5.9 1.6 14.3 10.4 18.7z"/><path class="b" d="m164.3 193.8c0 0 0 0 0 0.1-0.4 3.8 0.3 8.4 1.5 12.5 0 0.2 0 0.4 0.1 0.6l2.1 4.4c0.4 0.8 1.7 1.1 2.1 0.5l7.5-13.6c1-1.4 4.2-0.5 6.8 0.3 1.9 0.6 3.8 1.4 5.6 2.3l1.6 0.8c1.8 0.9 3.5 1.9 5.2 3.1 2.1 1.5 4.7 3.6 4.3 5.3l-6.5 14c-0.3 0.7 0.7 1.6 1.6 1.4l4.8-1c0.2 0 0.4-0.2 0.6-0.3 4-1.4 8.2-3.6 11-6.2 0 0 0 0 0.1 0 6-6.9 5.9-16-5.7-25.2l73.3-144.9-19-9.6-73.3 144.9c-14.1-3.6-21.4 1.6-23.3 10.4"/></g><g clip-path="url(#cp3)"><path class="d" d="m595.5 137.7c-5.3 22.8-28.1 36.9-50.9 31.6-22.8-5.3-36.9-28.1-31.6-50.9 5.3-22.8 28.1-36.9 50.9-31.6 22.8 5.3 36.9 28.1 31.6 50.9z"/><path class="e" d="m585.7 135.2c-4 17.1-21.2 27.8-38.3 23.8-17.1-4-27.8-21.2-23.8-38.3 4-17.1 21.2-27.8 38.3-23.8 17.1 4 27.8 21.2 23.8 38.3z"/><path class="c" d="m606.9 140.2c-6.8 28.9-35.6 46.8-64.5 40-28.9-6.8-46.8-35.6-40-64.5 6.8-28.9 35.6-46.8 64.5-40 28.9 6.8 46.8 35.6 40 64.5z"/><path fill-rule="evenodd" class="f" d="m561.9 68.3l2.2-9.3 12.3 2.9-2.1 9.3z"/><path fill-rule="evenodd" class="d" d="m561.9 68.3l2.2-9.3 12.3 2.9-2.1 9.3z"/><path fill-rule="evenodd" class="f" d="m532.3 193.9l2.2-9.1 12.3 2.9-2.1 9.1z"/><path fill-rule="evenodd" class="d" d="m532.3 193.9l2.2-9.1 12.3 2.9-2.1 9.1z"/><path fill-rule="evenodd" class="f" d="m492.4 159.1l8.1-5 6.7 10.8-8.1 5z"/><path fill-rule="evenodd" class="d" d="m492.4 159.1l8.1-5 6.7 10.8-8.1 5z"/><path fill-rule="evenodd" class="f" d="m602.2 91.2l7.9-4.9 6.7 10.8-7.9 4.9z"/><path fill-rule="evenodd" class="d" d="m602.2 91.2l7.9-4.9 6.7 10.8-7.9 4.9z"/><path fill-rule="evenodd" class="f" d="m611.9 147.7l2.9-12.4 9.2 2.2-2.9 12.3z"/><path fill-rule="evenodd" class="d" d="m611.9 147.7l2.9-12.4 9.2 2.2-2.9 12.3z"/><path fill-rule="evenodd" class="f" d="m486.5 118.2l2.9-12.3 9 2.1-2.9 12.4z"/><path fill-rule="evenodd" class="d" d="m486.5 118.2l2.9-12.3 9 2.1-2.9 12.4z"/><path fill-rule="evenodd" class="f" d="m512.2 72.3l10.8-6.7 5 8-10.8 6.7z"/><path fill-rule="evenodd" class="d" d="m512.2 72.3l10.8-6.7 5 8-10.8 6.7z"/><path fill-rule="evenodd" class="f" d="m580.2 182l10.8-6.7 4.9 7.9-10.8 6.7z"/><path fill-rule="evenodd" class="d" d="m580.2 182l10.8-6.7 4.9 7.9-10.8 6.7z"/><path class="e" d="m609.9 141.1c-7.2 30.7-38 49.8-68.7 42.6-30.7-7.2-49.8-38-42.6-68.7 7.2-30.7 38-49.8 68.7-42.6 30.7 7.2 49.8 38 42.6 68.7z"/></g><path class="b" d="m145.9 258.8q-2.4 0-3.7 2.2-1.4 2.2-1.4 6.3 0 4 1.4 6.2 1.3 2.2 3.7 2.2 2.4 0 3.7-2.2 1.4-2.2 1.4-6.2 0-4.1-1.4-6.3-1.3-2.2-3.7-2.2zm0-4.8q4.9 0 7.7 3.5 2.8 3.6 2.8 9.8 0 6.2-2.8 9.7-2.8 3.5-7.7 3.5-4.9 0-7.7-3.5-2.8-3.5-2.8-9.7 0-6.2 2.8-9.8 2.8-3.5 7.7-3.5zm15 24.6v-5.2h4.9v5.2l-3.4 6.4h-2.9zm23.5-13.4h-5.8v-4.4h16.6v4.4h-5.9v8.6q0 2.2 0.4 2.7 0.3 0.6 1.1 0.6 0.8 0 1.2-0.1v3.2q-0.9 0.4-3.8 0.4-0.9 0-1.8-0.3-1.4-0.5-1.8-2.1-0.2-0.7-0.2-2.2zm18.7-4.4v13q0 2.2 0.3 2.7 0.4 0.6 1.2 0.6 0.7 0 1.2-0.1v3.2q-0.9 0.4-3.8 0.4-0.9 0-1.8-0.3-1.4-0.5-1.8-2.1-0.2-0.7-0.2-2.2v-15.2zm23 5.8l0.3 0.8 2.8-6.6h5.2l-5.8 13.4 2.1 6.7q0.5 1.4 0.9 1.9 0.5 0.4 1.3 0.4h1.5v4h-2.3q-2.5 0-3.8-1.2-1.3-1.3-2.3-4.5l-0.2-0.8-2.9 6.5h-5.2l5.9-13.3-2.2-6.8q-0.5-1.4-1-1.8-0.5-0.5-1.1-0.5h-1.6v-4h2.9q1.8 0 3.1 1.2 1.3 1.2 2.4 4.6zm22.1-3.9l0.5-1.9h4.2l-2.6 9.9 0.4 2.6q0.3 2.8 1.3 2.8h1.1v3.9h-1.4q-2.2 0-3.3-1.5-0.2-0.3-0.3-0.5-0.6 1.1-1.3 1.8-0.6 0.6-4.1 0.6-3.3 0-4.8-2.6-1.5-2.6-1.5-7.7 0-5 1.5-7 2-2.7 5.7-2.7 3.2-0.1 4.6 2.3zm-2.8 10.9l0.9-3.7-0.4-2.8q-0.4-2.6-2.2-2.6-0.9 0-1.7 1.5-0.7 1.4-0.7 4.4 0 3 0.7 4.4 0.6 1.3 1.7 1.4 1 0 1.7-2.6zm9.5 6.4l5.9-17.5-0.9-2.8q-0.3-1.4-0.9-1.8-0.5-0.5-1.7-0.5h-1.6v-4h2.8q2.5 0 3.9 1.3 1.3 1.3 2.3 4.4l6.2 20.9h-4.9l-3-10.1-3.2 10.1zm23.9-21.6l3.8-6.4h3.9l-5.1 6.4zm6.5 4.3l0.5-1.9h4.2l-2.6 9.9 0.3 2.6q0.4 2.8 1.4 2.8h1.1v3.9h-1.4q-2.2 0-3.3-1.5-0.2-0.3-0.3-0.5-0.7 1.1-1.3 1.8-0.7 0.6-4.1 0.6-3.4 0-4.9-2.6-1.4-2.6-1.4-7.7 0-5 1.5-7 2-2.7 5.7-2.7 3.2-0.1 4.6 2.3zm-2.9 10.9l1-3.7-0.4-2.8q-0.4-2.6-2.2-2.6-0.9 0-1.7 1.5-0.8 1.4-0.8 4.4 0 3 0.7 4.4 0.7 1.3 1.7 1.4 1.1 0 1.7-2.6zm13.6-4q-1.5-0.4-2.2-1.5-0.8-1.1-0.8-2.7 0-2.6 1.6-3.8 1.6-1.2 4.7-1.2 1.2 0 2.4 0.2 1.3 0.2 2.5 0.6v4.1q-0.8-0.5-2-0.8-1.1-0.2-1.9-0.2-1.3 0-2.1 0.6-0.7 0.6-0.7 1.3 0 0.7 0.7 1.3 0.7 0.5 2.3 0.5h1.7v3.9h-1.6q-1.8 0-2.6 0.6-0.9 0.7-0.9 1.7 0 1 0.9 1.7 0.9 0.6 2.5 0.6 1 0 2.2-0.3 1.3-0.4 2.2-1v4.3q-1.2 0.5-2.5 0.7-1.2 0.3-2.5 0.3-3.6 0-5.4-1.5-1.9-1.5-1.9-4.5 0-1.9 0.9-3.1 0.8-1.3 2.5-1.8zm18.2-8.8v13q0 2.2 0.3 2.7 0.4 0.6 1.1 0.6 0.8 0 1.2-0.1v3.2q-0.8 0.4-3.7 0.4-0.9 0-1.8-0.3-1.4-0.5-1.8-2.1-0.2-0.7-0.2-2.2v-15.2zm6.8 17.8v-5.3h4.9v5.3l-3.4 6.3h-2.9zm19.7 1.4v-25.5h14.2v5h-8.9v4.7h8.4v5h-8.4v10.8zm18.8 0v-19.1h4.9v19.1zm0-21.6v-5h4.9v5zm8 21.6l5.8-9.8-5.5-9.3h5.2l3.1 5.7 3.2-5.7h5.2l-5.6 9.3 5.8 9.8h-5.1l-3.5-6-3.4 6zm29.3-8.6h-2.5q-1.5 0-2.3 0.7-0.8 0.6-0.8 1.9 0 1.1 0.6 1.8 0.7 0.7 1.8 0.7 1.4 0 2.3-1.3 0.9-1.2 0.9-3.1zm5-2.3v10.9h-5v-2.8q-0.9 1.7-2.2 2.5-1.2 0.8-3 0.8-2.3 0-3.8-1.7-1.5-1.7-1.5-4.5 0-3.4 1.8-4.9 1.9-1.6 5.9-1.6h2.8v-0.5q0-1.5-0.9-2.1-0.9-0.7-2.8-0.7-1.6 0-3 0.4-1.3 0.4-2.5 1.2v-4.7q1.6-0.5 3.2-0.7 1.6-0.3 3.2-0.3 4.1 0 5.9 2.1 1.9 2 1.9 6.6zm15.1-5.4v-10.3h4.9v26.6h-4.9v-2.7q-1.1 1.7-2.3 2.4-1.2 0.8-2.8 0.8-2.8 0-4.6-2.8-1.9-2.8-1.9-7.2 0-4.4 1.9-7.2 1.8-2.9 4.6-2.9 1.6 0 2.8 0.8 1.2 0.8 2.3 2.5zm-3.3 12.4q1.6 0 2.4-1.4 0.9-1.5 0.9-4.2 0-2.8-0.9-4.2-0.8-1.4-2.4-1.4-1.5 0-2.4 1.4-0.8 1.4-0.8 4.2 0 2.7 0.8 4.2 0.9 1.4 2.4 1.4zm20.1-11.3q-1.6 0-2.5 1.5-0.8 1.4-0.8 4.2 0 2.7 0.8 4.2 0.9 1.5 2.5 1.5 1.6 0 2.5-1.5 0.8-1.5 0.8-4.2 0-2.8-0.8-4.2-0.9-1.5-2.5-1.5zm0-4.4q4 0 6.2 2.7 2.2 2.7 2.2 7.4 0 4.7-2.2 7.4-2.2 2.6-6.2 2.6-3.9 0-6.2-2.6-2.2-2.7-2.2-7.4 0-4.7 2.2-7.4 2.3-2.7 6.2-2.7zm25.8 4.9h-5.8v-4.4h16.5v4.4h-5.8v8.5q0 2.2 0.3 2.8 0.4 0.5 1.1 0.5 0.8 0 1.2 0v3.2q-0.8 0.4-3.7 0.4-0.9 0-1.8-0.3-1.4-0.6-1.8-2.1-0.2-0.8-0.2-2.2zm21.2-0.5q-1.6 0-2.5 1.5-0.8 1.4-0.8 4.2 0 2.7 0.8 4.2 0.9 1.4 2.5 1.4 1.6 0 2.5-1.4 0.8-1.5 0.8-4.2 0-2.8-0.8-4.2-0.9-1.5-2.5-1.5zm0-4.4q4 0 6.2 2.7 2.2 2.6 2.2 7.4 0 4.7-2.2 7.3-2.2 2.7-6.2 2.7-3.9 0-6.2-2.7-2.2-2.6-2.2-7.3 0-4.8 2.2-7.4 2.3-2.7 6.2-2.7z"/></svg>
